<?xml version="1.0" standalone="no"?>
<!DOCTYPE svg PUBLIC "-//W3C//DTD SVG 20010904//EN"
 "http://www.w3.org/TR/2001/REC-SVG-20010904/DTD/svg10.dtd">
<svg version="1.0" xmlns="http://www.w3.org/2000/svg"
 width="4267.000000pt" height="4267.000000pt" viewBox="0 0 4267.000000 4267.000000"
 preserveAspectRatio="xMidYMid meet">
<metadata>
Created by potrace 1.14, written by Peter Selinger 2001-2017
</metadata>
<g transform="translate(0.000000,4267.000000) scale(0.100000,-0.100000)"
fill="#000000" stroke="none">
<path d="M6675 42659 c-1742 -102 -3368 -831 -4600 -2064 -916 -915 -1566
-2067 -1870 -3310 -106 -435 -168 -856 -195 -1319 -14 -248 -14 -28998 0
-29256 83 -1501 615 -2893 1551 -4060 321 -401 753 -828 1154 -1141 787 -615
1681 -1052 2643 -1293 471 -118 926 -184 1432 -206 318 -14 28774 -14 29085 0
1016 45 1930 277 2822 715 725 355 1322 783 1894 1354 571 572 999 1169 1354
1894 438 892 670 1806 715 2822 14 311 14 28767 0 29085 -66 1503 -579 2898
-1499 4075 -313 401 -740 833 -1141 1154 -1167 936 -2559 1468 -4060 1551
-225 12 -29072 11 -29285 -1z m10364 -6754 c360 -45 659 -134 986 -295 567
-279 1001 -713 1293 -1293 40 -79 1288 -3186 3237 -8059 l3172 -7931 -1469
-3671 c-808 -2019 -1489 -3727 -1514 -3796 -47 -127 -122 -406 -145 -538 -7
-40 -16 -69 -20 -65 -4 4 -518 1286 -1142 2848 -624 1562 -1160 2895 -1191
2962 -201 438 -455 803 -795 1144 -291 290 -573 500 -924 684 -1185 622 -2696
588 -3843 -86 -661 -388 -1180 -954 -1525 -1663 -62 -128 -527 -1278 -1578
-3906 -819 -2049 -1505 -3759 -1524 -3800 -234 -509 -659 -982 -1152 -1277
-1055 -633 -2397 -545 -3370 221 -128 101 -390 364 -485 486 -555 719 -758
1622 -560 2490 15 69 45 177 65 240 66 204 9409 23550 9489 23710 147 296 313
528 541 756 82 83 188 181 235 218 458 364 1031 585 1650 636 135 11 417 4
569 -15z m18492 15 c910 -91 1693 -528 2196 -1225 282 -391 464 -901 513
-1435 14 -160 14 -23648 0 -23810 -79 -883 -540 -1676 -1268 -2185 -548 -382
-1252 -571 -1917 -515 -702 60 -1357 364 -1854 861 -405 405 -689 925 -805
1476 -66 311 -60 -75 -66 4416 l-5 4068 -1773 -4443 c-1311 -3283 -1797 -4490
-1862 -4623 -152 -311 -352 -588 -604 -840 -529 -528 -1195 -842 -1916 -905
-733 -63 -1503 185 -2085 674 -129 107 -330 315 -424 436 -222 285 -403 635
-511 986 -172 559 -166 1179 17 1749 57 178 9406 23544 9483 23700 400 816
1090 1368 1950 1559 108 24 290 51 390 59 106 8 446 6 541 -3z"/>
<path d="M16450 25543 c-120 -9 -347 -48 -483 -82 -604 -154 -1149 -506 -1544
-997 -172 -215 -365 -554 -458 -808 -314 -856 -202 -1831 299 -2590 427 -647
1108 -1106 1853 -1250 234 -45 306 -51 578 -50 293 0 426 16 680 78 1042 257
1865 1078 2119 2119 64 258 80 398 80 692 0 294 -16 434 -80 692 -220 901
-872 1651 -1734 1996 -266 107 -521 168 -819 197 -95 9 -385 11 -491 3z"/>
</g>
</svg>
